<svg width="145" height="218" viewBox="0 0 145 218" fill="none" xmlns="http://www.w3.org/2000/svg">
<path d="M123.192 -11.2961C123.192 -11.2961 130.56 -45.7693 158.213 -5.3629C158.213 -5.3629 202.702 43.6722 189.579 105.306C186.703 118.529 182.266 131.366 176.361 143.547C166.501 163.77 152.783 181.881 135.975 196.867L99.9851 229.852C99.9851 229.852 61.8332 255.067 69.9285 223.183C69.9285 223.183 70.3244 209.977 76.6935 207.34C76.6935 207.34 88.4723 200.198 80.8469 189.864C80.8469 189.864 77.0237 182.34 87.8587 175.676C87.8587 175.676 97.523 170.197 91.3166 160.327C91.3166 160.327 89.131 150.199 99.501 144.956C99.501 144.956 107.769 143.731 102.959 129.61C102.959 129.61 101.963 120.655 108.811 118.969C108.811 118.969 118.731 117.498 109.919 105.991C109.919 105.991 104.673 98.0031 115.276 92.039C115.276 92.039 122.121 90.3482 114.484 77.6566C114.484 77.6566 109.962 72.2581 119.856 66.0698C119.856 66.0698 125.281 63.9156 119.543 52.6285C119.543 52.6285 114.514 41.5723 122.769 37.9901C122.769 37.9901 128.891 33.7101 124.34 23.5959C124.336 23.6003 118.52 -1.8373 123.192 -11.2961Z" fill="#D6D6D6" fill-opacity="0.6"/>
<path d="M105.958 -6.71887C105.958 -6.71887 113.42 -24.6909 97.8454 -20.3516C82.2704 -16.0123 52.3863 7.97081 52.3863 7.97081C52.3863 7.97081 5.71874 32.7627 0 107.788C0 107.788 0.910122 184.193 23.3156 216.608L42.855 243.382C42.855 243.382 51.6255 247.813 54.1405 232.942L60.8394 205.314C60.8394 205.314 62.6977 199.639 67.8916 198.198C67.8916 198.198 74.0261 196.276 67.3441 185.467C67.3441 185.467 65.4192 179.347 73.6733 175.771C74.8083 175.416 75.8458 174.804 76.7051 173.984C79.9954 170.791 80.0902 164.461 77.1174 158.063C76.5723 153.511 76.4968 148.915 76.8922 144.347C78.1627 129.686 84.0388 118.614 88.2015 112.24C88.2015 112.24 120.043 58.2915 106.888 31.2458C106.888 31.2458 99.2378 16.1953 105.958 -6.71887Z" fill="#D6D6D6" fill-opacity="0.6"/>
</svg>
